<svg viewBox="0 0 512 512">
    <path
            d="M390 136 232 294c-10 9-25 9-34 0l-12-12c-9-9-9-24 0-34-34-40-35-99-3-140a78 78 0 0 0-119 66v306H0V174A142 142 0 0 1 238 69c36-11 76-4 106 21 10-9 25-9 34 0l12 12c9 9 9 24 0 34zm-6 72a16 16 0 1 1-32 0 16 16 0 0 1 32 0zm32 0a16 16 0 1 1 32 0 16 16 0 0 1-32 0zm96 0a16 16 0 1 1-32 0 16 16 0 0 1 32 0zm-160 32a16 16 0 1 1-32 0 16 16 0 0 1 32 0zm48-16a16 16 0 1 1 0 32 16 16 0 0 1 0-32zm80 16a16 16 0 1 1-32 0 16 16 0 0 1 32 0zm-160 32a16 16 0 1 1-32 0 16 16 0 0 1 32 0zm32 0a16 16 0 1 1 32 0 16 16 0 0 1-32 0zm96 0a16 16 0 1 1-32 0 16 16 0 0 1 32 0zm-128 32a16 16 0 1 1 32 0 16 16 0 0 1-32 0zm96 0a16 16 0 1 1-32 0 16 16 0 0 1 32 0zm-96 32a16 16 0 1 1-32 0 16 16 0 0 1 32 0zm64 0a16 16 0 1 1-32 0 16 16 0 0 1 32 0zm-32 32a16 16 0 1 1-32 0 16 16 0 0 1 32 0zm-32 32a16 16 0 1 1-32 0 16 16 0 0 1 32 0z"
    />
</svg>