<svg viewBox="0 0 512 512">
    <path
            d="M496 384H160v-16c0-9-7-16-16-16h-32c-9 0-16 7-16 16v16H16c-9 0-16 7-16 16v32c0 9 7 16 16 16h80v16c0 9 7 16 16 16h32c9 0 16-7 16-16v-16h336c9 0 16-7 16-16v-32c0-9-7-16-16-16zm0-160h-80v-16c0-9-7-16-16-16h-32c-9 0-16 7-16 16v16H16c-9 0-16 7-16 16v32c0 9 7 16 16 16h336v16c0 9 7 16 16 16h32c9 0 16-7 16-16v-16h80c9 0 16-7 16-16v-32c0-9-7-16-16-16zm0-160H288V48c0-9-7-16-16-16h-32c-9 0-16 7-16 16v16H16C7 64 0 71 0 80v32c0 9 7 16 16 16h208v16c0 9 7 16 16 16h32c9 0 16-7 16-16v-16h208c9 0 16-7 16-16V80c0-9-7-16-16-16z"
    />
</svg>