<svg viewBox="0 0 576 512">
    <path
            d="M511 226a80 80 0 0 0-113-58 96 96 0 0 0-174 56v2a80 80 0 0 0 16 158h256a80 80 0 0 0 15-158zm-387 34a96 96 0 0 1 127-143c20-13 43-21 69-21h2l9-27c3-10-6-19-17-16l-75 25-35-71c-5-9-19-9-24 0l-35 71-76-25c-10-3-19 6-16 17l25 75-71 35c-9 5-9 19 0 24l71 35-25 75c-3 11 6 20 17 17l59-20-1-7c0-12 2-24 6-36l-10-8zm70-58c4-25 16-47 32-64a64 64 0 0 0-98 54c0 19 8 35 21 47 11-16 27-29 45-37zm331 216c-8-4-18-2-22 6l-37 64a16 16 0 0 0 14 24c5 0 11-3 14-8l36-64c5-8 2-18-6-22zm-96 0c-8-4-18-2-22 6l-37 64a16 16 0 0 0 14 24c5 0 11-3 14-8l36-64c5-8 2-18-6-22zm-96 0c-8-4-18-2-22 6l-37 64a16 16 0 0 0 14 24c5 0 11-3 14-8l36-64c5-8 2-18-6-22zm-96 0c-8-4-18-2-22 6l-37 64a16 16 0 0 0 14 24c6 0 11-3 14-8l37-64c4-8 1-18-6-22z"
    />
</svg>