<svg viewBox="0 0 512 512">
    <path
            d="M157 256H16c-9 0-16 7-16 16v32c0 9 7 16 16 16h142c16 0 31 11 34 27a32 32 0 0 1-62 15c-3-6-9-10-16-10H82c-10 0-18 9-16 18a96 96 0 0 0 189-31c-6-48-50-83-98-83zM16 224h336a96 96 0 0 0 21-190 96 96 0 0 0-115 76c-2 9 6 18 16 18h32c7 0 14-4 16-10 4-13 16-22 30-22 19 0 35 17 32 37-3 16-18 27-34 27H16c-9 0-16 7-16 16v32c0 9 7 16 16 16zm384 32H244c19 17 33 39 39 64h117a48 48 0 1 1-42 72c-3-5-8-8-14-8h-34c-11 0-19 11-15 21a112 112 0 0 0 214-10c17-73-38-139-109-139z"
    />
</svg>